<?xml version="1.0" encoding="UTF-8"?>
<svg id="Weiss" xmlns="http://www.w3.org/2000/svg" version="1.1" xmlns:xlink="http://www.w3.org/1999/xlink" viewBox="0 0 833 1063">
  <defs>
    <style>
      .cls-1 {
        fill: #c7cfd6;
      }

      .cls-1, .cls-2, .cls-3 {
        stroke-width: 0px;
      }

      .cls-4 {
        font-family: Corbel-Bold, Corbel;
        font-size: 23.4px;
        font-weight: 700;
      }

      .cls-4, .cls-2 {
        fill: #183a59;
      }

      .cls-3 {
        fill: #788c9e;
      }
    </style>
    <path id="path" d="M623.27,541.1c-5.3,114.2-102.17,202.48-216.37,197.18-114.2-5.3-202.48-102.17-197.18-216.37,5.3-114.2,102.17-202.48,216.37-197.18,114.2,5.3,202.48,102.17,197.18,216.37Z"/>
  </defs>
  <g>
    <path class="cls-2" d="M409.19,484.61c0-.78-.19-1.41-.57-1.89-.38-.48-.9-.87-1.56-1.18-.66-.3-1.39-.55-2.21-.74-.82-.19-1.67-.38-2.57-.56-1.19-.26-2.33-.57-3.41-.93-1.08-.36-2.04-.85-2.86-1.49-.82-.63-1.48-1.44-1.97-2.41s-.73-2.2-.73-3.66c0-1.62.28-3.02.85-4.22.56-1.2,1.33-2.19,2.3-2.97.97-.79,2.1-1.37,3.41-1.76,1.3-.39,2.77-.58,4.4-.58s3.27.16,4.92.48c1.65.32,3.07.73,4.25,1.24v4.8c-1.59-.62-3.11-1.08-4.56-1.36-1.46-.28-2.83-.42-4.11-.42-1.84,0-3.27.34-4.27,1.01-1,.67-1.5,1.68-1.5,3.02,0,.78.16,1.42.49,1.92.33.5.77.92,1.34,1.25s1.21.59,1.94.79c.73.2,1.51.38,2.33.55,1.3.27,2.54.59,3.72.95s2.23.86,3.15,1.5,1.64,1.48,2.17,2.5c.53,1.03.8,2.34.8,3.95s-.3,3.07-.92,4.28c-.61,1.21-1.48,2.2-2.6,2.99-1.12.79-2.48,1.37-4.08,1.75-1.6.38-3.35.57-5.26.57-1.66,0-3.3-.16-4.91-.49s-2.95-.79-4.01-1.38v-4.74c1.51.66,2.98,1.13,4.42,1.43s2.91.45,4.44.45c.88,0,1.75-.07,2.61-.22.85-.15,1.62-.39,2.3-.74.68-.35,1.22-.83,1.64-1.43.41-.6.62-1.35.62-2.23Z"/>
    <path class="cls-2" d="M439.04,481.7h-6.86v-4.69h12.47v15.44c-.46.17-1.04.34-1.75.53s-1.5.35-2.38.49c-.88.15-1.78.26-2.71.35-.93.09-1.85.14-2.77.14-2.75,0-5.14-.37-7.19-1.11-2.05-.74-3.76-1.78-5.12-3.12-1.37-1.34-2.39-2.94-3.07-4.79-.68-1.85-1.02-3.9-1.02-6.14,0-1.59.18-3.1.54-4.54.36-1.44.88-2.78,1.58-4,.69-1.23,1.54-2.34,2.53-3.33.99-.99,2.12-1.84,3.4-2.54s2.67-1.24,4.19-1.61,3.15-.56,4.88-.56c1.54,0,3,.11,4.39.33,1.39.22,2.52.49,3.41.81v4.76c-1.19-.38-2.39-.67-3.6-.87-1.21-.2-2.44-.3-3.67-.3-1.66,0-3.22.25-4.67.74-1.45.5-2.7,1.23-3.76,2.2-1.06.97-1.9,2.16-2.5,3.58-.61,1.42-.92,3.06-.92,4.92.01,3.61.96,6.33,2.84,8.13,1.88,1.81,4.54,2.71,7.98,2.71.64,0,1.3-.03,1.99-.1.69-.07,1.29-.16,1.81-.26v-7.16Z"/>
    <path class="cls-2" d="M406.65,549.61h-5.6v-25.92h-9.88v-4.69h25.35v4.69h-9.86v25.92Z"/>
    <path class="cls-2" d="M460.01,523.16c-1.52,0-2.93.25-4.22.75-1.29.5-2.39,1.24-3.32,2.2-.92.96-1.64,2.15-2.16,3.56s-.78,3.02-.78,4.84.24,3.38.71,4.75,1.15,2.5,2.04,3.42c.88.92,1.96,1.61,3.24,2.07,1.27.47,2.72.7,4.33.7,1.16,0,2.34-.09,3.55-.27s2.33-.45,3.39-.8v4.83c-1.07.31-2.22.55-3.45.72s-2.52.26-3.84.26c-2.59,0-4.87-.37-6.84-1.11-1.97-.74-3.61-1.78-4.93-3.13-1.32-1.35-2.31-2.97-2.97-4.85-.66-1.88-1-3.96-1-6.23s.36-4.5,1.06-6.5c.71-2,1.73-3.73,3.07-5.19,1.33-1.46,3-2.62,5.01-3.45,2-.84,4.27-1.27,6.8-1.28,1.3,0,2.52.09,3.68.26,1.16.18,2.2.42,3.13.74v4.76c-1.22-.38-2.36-.65-3.41-.8-1.05-.15-2.08-.23-3.09-.23Z"/>
    <path class="cls-2" d="M476.93,531.61h14.18v-12.6h5.6v30.61h-5.6v-13.31h-14.18v13.31h-5.6v-30.61h5.6v12.6Z"/>
    <path class="cls-2" d="M518.81,533.23c2.2,3.13,3.98,5.9,5.35,8.33h.14c-.18-3.98-.27-6.88-.27-8.69v-13.86h5.6v30.61h-5.88l-9.97-14.09c-1.75-2.44-3.57-5.27-5.44-8.49h-.14c.18,3.75.27,6.66.27,8.72v13.86h-5.6v-30.61h5.88l10.07,14.23Z"/>
    <path class="cls-2" d="M535.78,549.61v-30.61h5.6v30.61h-5.6Z"/>
    <path class="cls-2" d="M547.54,549.61v-30.61h5.6v13.93h.09l11.55-13.93h6.95l-12.76,15.17,13.82,15.44h-7.18l-12.38-13.82h-.09v13.82h-5.6Z"/>
  </g>
  <g>
    <polygon class="cls-1" points="549.81 594.84 464.99 671.2 380.36 594.84 380.36 411.43 363.01 411.43 363.01 601.55 363.01 601.65 465.01 691.81 567.16 601.55 549.81 594.84"/>
    <polygon class="cls-3" points="513.22 594.84 428.41 671.2 343.78 594.84 343.78 411.43 326.42 411.43 326.42 601.55 326.42 601.65 428.42 691.81 530.58 601.55 513.22 594.84"/>
    <polygon class="cls-2" points="476.64 594.84 391.82 671.2 307.19 594.84 307.19 411.43 289.84 411.43 289.84 601.55 289.84 601.65 391.84 691.81 493.99 601.55 476.64 594.84"/>
  </g>
  <rect class="cls-2" x="419.8" y="519.08" width="19.61" height="4.87"/>
  <rect class="cls-2" x="419.8" y="531.9" width="19.61" height="4.87"/>
  <rect class="cls-2" x="419.8" y="544.72" width="19.61" height="4.87"/>
  <path class="cls-2" d="M391.36,726.9c-96.8-12.38-171.86-95.29-171.86-195.4,0-108.63,88.37-197,197-197s189.95,81.52,196.57,184.2h6.01c-6.63-105.99-94.95-190.2-202.58-190.2s-203,91.07-203,203c0,103.42,77.75,189.03,177.86,201.44v-6.04Z"/>
  <text>
    <textPath startOffset="17.27%" xlink:href="#path"><tspan class="cls-4"><tspan x="0" y="0">SILO- UND SOLEANLAGENBAU</tspan></tspan>
    </textPath></text>
</svg>